<svg data-v-0dd9719b="" version="1.0" xmlns="http://www.w3.org/2000/svg" xmlns:xlink="http://www.w3.org/1999/xlink" width="100%" height="100%" viewBox="0 0 340.000000 250.000000" preserveAspectRatio="xMidYMid meet" color-interpolation-filters="sRGB" style="margin: auto;"> <rect data-v-0dd9719b="" x="0" y="0" width="100%" height="100%" fill="#fff" fill-opacity="1" class="background"></rect> <rect data-v-0dd9719b="" x="0" y="0" width="100%" height="100%" fill="url(#watermark)" fill-opacity="1" class="watermarklayer"></rect> <g data-v-0dd9719b="" fill="#333" class="icon-text-wrapper icon-svg-group iconsvg" transform="translate(48.662696838378906,97.64146614074707)"><g class="iconsvg-imagesvg" transform="translate(0,0)"><g><rect fill="#333" fill-opacity="0" stroke-width="2" x="0" y="0" width="60" height="54.71706716519995" class="image-rect"></rect> <svg x="0" y="0" width="60" height="54.71706716519995" filtersec="colorsb3500176490" class="image-svg-svg primary" style="overflow: visible;"><svg xmlns="http://www.w3.org/2000/svg" viewBox="0.007376670837402344 0.017479896545410156 109.63544464111328 99.98246765136719"><g fill-rule="evenodd"><path d="M46.12 21.84c-2.94-8.25-7.27-15.43-1.06-17.59C53.49 1.3 60.41-3 62.64 3.15c3 8.39 7.23 15.37 1.06 17.6L52.39 24.8c-10.91 3.9-8.55 23-5.62 31.19C54.16 76.67 23 87.73 15.59 67.14A16.58 16.58 0 0 1 25.61 46c3.09 0 23.98-14.41 20.51-24.16z" fill="#104e70"></path><path d="M83.51 43C82 51 84.92 71.28 93.82 73c8.39 1.62 17 1.62 15.69 8-1.83 9.17-1.67 16.89-8 15.7-8.37-1.59-16.91-1.65-15.69-8l2.28-11.82c2.18-11.39-15.46-19.05-24-20.7A16.53 16.53 0 0 1 51 36.77C55.1 15.24 87.68 21.51 83.51 43z" fill="#2491eb"></path><path d="M25.67 89.11c-6.16 7.08-10 13.8-14.81 9.58-7-6.13-13.74-9.91-9.57-14.79 4.8-5.62 9.76-14 14.8-9.58l9.08 7.9c8.74 7.57 24.23-3.87 29.9-10.44a16.58 16.58 0 0 1 23.38-1.65c16.57 14.44-5.21 39.37-21.72 25 2.5.04-23.48-14.74-31.06-6.02z" fill="#85c4f5"></path></g></svg></svg> <!----></g></g> <g transform="translate(67,3.4272842407226562)"><g data-gra="path-name" fill-rule="" class="tp-name iconsvg-namesvg" transform="translate(0,0)"><g transform="scale(1)"><g><path d="M4.64 1.58Q3.78 2.95 2.66 2.05L2.66 2.05Q1.69 1.22 2.48-0.07L2.48-0.07Q4.21-3.24 4.9-7.88L4.9-7.88Q5.36-11.09 5.36-15.59L5.36-15.59 5.36-23.26Q5.36-24.19 5.94-24.77 6.52-25.34 7.45-25.34L7.45-25.34 17.64-25.34 17.64-28.76Q17.64-30.1 19.01-30.1L19.01-30.1Q20.34-30.1 20.34-28.76L20.34-28.76 20.34-25.34 32.36-25.34Q33.62-25.34 33.62-24.08L33.62-24.08Q33.62-22.79 32.36-22.79L32.36-22.79 8.78-22.79Q8.03-22.79 8.03-22.03L8.03-22.03 8.03-15.59Q8.03-4.43 4.64 1.58L4.64 1.58ZM41.51 1.44Q40.28 2.74 39.29 1.71 38.3 0.68 39.56-0.58L39.56-0.58Q42.7-4.1 43.88-9.14L43.88-9.14Q44.71-12.78 44.71-18.4L44.71-18.4 44.71-28.19Q44.71-29.48 46.01-29.48L46.01-29.48Q47.3-29.48 47.3-28.19L47.3-28.19 47.3-18.4Q47.3-12.1 46.37-8.06L46.37-8.06Q45.04-2.45 41.51 1.44L41.51 1.44ZM66.67 2.3L66.67 2.3Q65.34 2.3 65.34 1.01L65.34 1.01 65.34-28.33Q65.34-29.63 66.67-29.63L66.67-29.63Q67.97-29.63 67.97-28.33L67.97-28.33 67.97 1.01Q67.97 2.3 66.67 2.3ZM56.09 0.29L56.09 0.29Q54.79 0.29 54.79-1.01L54.79-1.01 54.79-27.43Q54.79-28.73 56.09-28.73L56.09-28.73Q57.38-28.73 57.38-27.43L57.38-27.43 57.38-1.01Q57.38 0.29 56.09 0.29ZM52.24-11.38Q50.9-10.8 50.65-12.1L50.65-12.1Q50.44-13.18 49.86-15.12L49.86-15.12Q49.36-16.85 48.64-18.79L48.64-18.79Q48.2-19.84 49.32-20.27L49.32-20.27Q50.36-20.7 50.8-19.66L50.8-19.66Q52.42-15.77 53.03-12.64L53.03-12.64Q53.1-12.13 52.92-11.86 52.74-11.59 52.24-11.38L52.24-11.38ZM40.14-11.7Q39.67-10.87 38.63-11.3L38.63-11.3Q37.4-11.84 38.02-12.89L38.02-12.89Q39.64-15.95 40.5-20.12L40.5-20.12Q40.72-21.28 41.9-20.95L41.9-20.95Q42.91-20.63 42.73-19.66L42.73-19.66Q42.16-17.03 41.69-15.48L41.69-15.48Q40.97-13.21 40.14-11.7L40.14-11.7ZM63.32-11.77Q62.64-11.41 62.28-11.52 61.92-11.63 61.7-12.31L61.7-12.31Q61.38-13.43 60.52-15.37L60.52-15.37Q59.62-17.46 58.75-19.04L58.75-19.04Q58.25-20.02 59.26-20.56L59.26-20.56Q60.23-21.06 60.77-20.12L60.77-20.12Q62.93-16.38 64.04-13.1L64.04-13.1Q64.19-12.64 64.01-12.31L64.01-12.31Q63.86-12.06 63.32-11.77L63.32-11.77ZM95.58 2.81L95.58 2.81Q93.92 2.81 93.6 1.8L93.6 1.8Q93.06 0.36 95.33 0.43L95.33 0.43Q97.09 0.43 97.38 0.4L97.38 0.4Q97.81 0.36 97.96 0.23 98.1 0.11 98.1-0.25L98.1-0.25 98.1-7.09 84.96-7.09Q83.81-7.09 83.81-8.24 83.81-9.4 84.96-9.4L84.96-9.4 98.1-9.4 98.1-12.46 85.79-12.46Q84.64-12.46 84.64-13.61 84.64-14.76 85.79-14.76L85.79-14.76 104.26-14.76Q105.41-14.76 105.41-13.61 105.41-12.46 104.26-12.46L104.26-12.46 100.73-12.46 100.73-9.4 104.9-9.4Q106.06-9.4 106.06-8.24 106.06-7.09 104.9-7.09L104.9-7.09 100.73-7.09 100.73-0.18Q100.73 0.9 100.42 1.48 100.12 2.05 99.36 2.38L99.36 2.38Q98.39 2.74 95.58 2.81ZM79.92 2.74L79.92 2.74Q78.62 2.74 78.62 1.44L78.62 1.44 78.62-13.75Q77.11-12.06 75.71-10.91L75.71-10.91Q74.45-9.86 73.69-11.27L73.69-11.27Q73.08-12.46 74.12-13.25L74.12-13.25Q78.44-16.7 81.25-21.17L81.25-21.17Q81.83-22.14 82.91-21.71L82.91-21.71Q84.17-21.2 83.48-20.09L83.48-20.09Q82.66-18.76 81.22-16.78L81.22-16.78 81.22 1.44Q81.22 2.74 79.92 2.74ZM92.3-0.79Q91.26-0.04 90.61-0.97L90.61-0.97Q90.22-1.55 89.35-2.59L89.35-2.59Q88.85-3.17 87.73-4.39L87.73-4.39Q86.87-5.26 87.95-5.98L87.95-5.98Q88.7-6.48 89.42-5.87L89.42-5.87Q91.58-3.71 92.7-2.27L92.7-2.27Q93.02-1.8 92.92-1.48L92.92-1.48Q92.81-1.15 92.3-0.79L92.3-0.79ZM101.63-17.17L88.88-17.17Q87.95-17.17 87.37-17.75 86.8-18.32 86.8-19.26L86.8-19.26 86.8-26.89Q86.8-27.83 87.37-28.4 87.95-28.98 88.88-28.98L88.88-28.98 101.63-28.98Q102.56-28.98 103.14-28.4 103.72-27.83 103.72-26.89L103.72-26.89 103.72-19.26Q103.72-18.32 103.14-17.75 102.56-17.17 101.63-17.17L101.63-17.17ZM90.11-19.22L90.11-19.22 100.33-19.22Q101.09-19.22 101.09-19.98L101.09-19.98 101.09-22.14 89.35-22.14 89.35-19.98Q89.35-19.22 90.11-19.22ZM76.1-21.24Q75.02-20.48 74.34-21.56 73.66-22.64 74.74-23.4L74.74-23.4Q78.48-26.14 80.6-29.12L80.6-29.12Q81.14-29.99 82.3-29.56L82.3-29.56Q83.77-29.02 82.84-27.83L82.84-27.83Q81.58-26.17 79.78-24.41L79.78-24.41Q78.01-22.72 76.1-21.24L76.1-21.24ZM89.35-26.21L89.35-24.08 101.09-24.08 101.09-26.21Q101.09-26.96 100.33-26.96L100.33-26.96 90.11-26.96Q89.35-26.96 89.35-26.21L89.35-26.21ZM140.18 1.69L111.89 1.69Q110.66 1.69 110.66 0.47L110.66 0.47Q110.66-0.79 111.89-0.79L111.89-0.79 124.52-0.79 124.52-8.06 116.14-8.06Q114.91-8.06 114.91-9.29 114.91-10.51 116.14-10.51L116.14-10.51 124.52-10.51 124.52-15.91 115.27-15.91Q114.01-15.91 114.01-17.17 114.01-18.43 115.27-18.43L115.27-18.43 137.95-18.43 137.95-22.57Q137.95-23.33 137.2-23.33L137.2-23.33 114.7-23.33Q113.94-23.33 113.94-22.57L113.94-22.57 113.94-19.66Q113.94-18.32 112.61-18.32L112.61-18.32Q111.28-18.32 111.28-19.66L111.28-19.66 111.28-23.76Q111.28-24.7 111.85-25.27 112.43-25.85 113.36-25.85L113.36-25.85 124.52-25.85 124.52-28.73Q124.52-30.1 125.93-30.1L125.93-30.1Q127.3-30.1 127.3-28.73L127.3-28.73 127.3-25.85 138.64-25.85Q139.57-25.85 140.15-25.27 140.72-24.7 140.72-23.76L140.72-23.76 140.72-20.41Q140.72-19.48 140.15-18.9 139.57-18.32 138.64-18.32L138.64-18.32 138.02-18.32 138.02-16.99Q138.02-16.52 137.74-16.22 137.45-15.91 136.94-15.91L136.94-15.91 127.22-15.91 127.22-10.51 136.01-10.51Q137.23-10.51 137.23-9.29 137.23-8.06 136.01-8.06L136.01-8.06 127.22-8.06 127.22-0.79 140.18-0.79Q141.41-0.79 141.41 0.47L141.41 0.47Q141.41 1.69 140.18 1.69L140.18 1.69ZM136.62-1.91Q135.61-1.12 134.89-2.02L134.89-2.02Q134.32-2.66 133.2-3.67L133.2-3.67Q132.16-4.68 131.08-5.47L131.08-5.47Q130.1-6.26 131.15-7.09L131.15-7.09Q131.87-7.67 132.55-7.13L132.55-7.13Q135.07-5.29 136.87-3.46L136.87-3.46Q137.27-3.02 137.2-2.66L137.2-2.66Q137.12-2.34 136.62-1.91L136.62-1.91ZM149.33 2.3L149.33 2.3Q147.96 2.23 147.71 0.9L147.71 0.9 147.67 0.83Q147.17-0.29 148.68-0.25L148.68-0.25Q149.8-0.22 150.88-0.29L150.88-0.29Q151.63-0.4 152.03-0.94L152.03-0.94Q153.18-2.41 153.18-10.87L153.18-10.87Q153.18-12.1 153.14-12.71L153.14-12.71Q151.06-9.47 148.43-6.95L148.43-6.95Q147.89-6.48 147.47-6.5 147.06-6.52 146.59-7.06L146.59-7.06Q146.09-7.67 146.12-8.08 146.16-8.5 146.81-8.96L146.81-8.96Q148.54-10.44 150.16-12.49L150.16-12.49Q151.78-14.62 152.82-16.7L152.82-16.7Q152.39-19.4 151.56-21.28L151.56-21.28Q149.9-19.62 148.25-18.32L148.25-18.32Q147.24-17.57 146.41-18.43L146.41-18.43Q145.55-19.4 146.63-20.2L146.63-20.2Q148.64-21.74 150.34-23.62L150.34-23.62Q149.33-25.24 147.74-26.86L147.74-26.86Q146.7-27.83 147.74-28.62L147.74-28.62Q148.57-29.27 149.4-28.51L149.4-28.51Q150.66-27.29 151.99-25.52L151.99-25.52Q153.04-26.75 153.94-28.19L153.94-28.19Q154.62-29.38 155.74-28.51L155.74-28.51Q156.67-27.79 156.06-26.82L156.06-26.82Q154.8-24.84 153.36-23.22L153.36-23.22Q154.8-20.45 155.3-17.21L155.3-17.21Q155.74-14.69 155.74-10.84L155.74-10.84Q155.74-1.55 153.94 0.94L153.94 0.94Q153.14 1.87 151.96 2.09L151.96 2.09Q151.02 2.3 149.33 2.3ZM174.38 0.86L160.24 0.86Q159.3 0.86 158.72 0.29 158.15-0.29 158.15-1.22L158.15-1.22 158.15-14.18Q158.15-15.12 158.72-15.7 159.3-16.27 160.24-16.27L160.24-16.27 174.38-16.27Q175.32-16.27 175.9-15.7 176.47-15.12 176.47-14.18L176.47-14.18 176.47-1.22Q176.47-0.29 175.9 0.29 175.32 0.86 174.38 0.86L174.38 0.86ZM161.32-1.51L161.32-1.51 166.03-1.51 166.03-6.59 160.56-6.59 160.56-2.27Q160.56-1.51 161.32-1.51ZM168.44-6.59L168.44-1.51 173.2-1.51Q173.95-1.51 173.95-2.27L173.95-2.27 173.95-6.59 168.44-6.59ZM160.56-13.1L160.56-8.93 166.03-8.93 166.03-13.86 161.32-13.86Q160.56-13.86 160.56-13.1L160.56-13.1ZM168.44-13.86L168.44-8.93 173.95-8.93 173.95-13.1Q173.95-13.86 173.2-13.86L173.2-13.86 168.44-13.86ZM162.9-17.86L162.9-17.86Q161.6-17.86 161.6-19.12L161.6-19.12 161.6-22.54 157.82-22.54Q156.6-22.54 156.6-23.76 156.6-24.98 157.82-24.98L157.82-24.98 161.6-24.98 161.6-28.84Q161.6-30.1 162.9-30.1L162.9-30.1Q164.16-30.1 164.16-28.84L164.16-28.84 164.16-24.98 170.42-24.98 170.42-28.84Q170.42-30.1 171.72-30.1L171.72-30.1Q172.98-30.1 172.98-28.84L172.98-28.84 172.98-24.98 176.58-24.98Q177.8-24.98 177.8-23.76 177.8-22.54 176.58-22.54L176.58-22.54 172.98-22.54 172.98-19.12Q172.98-17.86 171.72-17.86L171.72-17.86Q170.42-17.86 170.42-19.12L170.42-19.12 170.42-22.54 164.16-22.54 164.16-19.12Q164.16-17.86 162.9-17.86Z" transform="translate(-2.1253976821899414, 30.100000381469727)"></path></g> <!----> <!----> <!----> <!----> <!----> <!----> <!----></g></g> <g data-gra="path-slogan" fill-rule="" class="tp-slogan iconsvg-slogansvg" fill="#333" transform="translate(4.999992370605469,38.90999984741211)"><rect x="0" height="1" y="3.9750003814697266" width="5.281745910644531"></rect> <rect height="1" y="3.9750003814697266" width="5.281745910644531" x="160.39286041259766"></rect> <g transform="translate(8.281745910644531,0)"><g transform="scale(1)"><path d="M7.31-3.61L4.69-3.61L4.69-4.59L8.44-4.59L8.44 0L7.69 0L7.41-1.08Q6.42 0.09 4.59 0.14L4.59 0.14Q2.86 0.14 1.92-0.75L1.92-0.75Q0.52-2.06 0.56-4.36L0.56-4.36Q0.89-8.63 4.64-8.81L4.64-8.81Q7.83-8.63 8.30-6L8.30-6L7.17-6Q6.70-7.78 4.59-7.83L4.59-7.83Q1.92-7.64 1.78-4.31L1.78-4.31Q1.78-0.75 4.64-0.75L4.64-0.75Q5.67-0.75 6.42-1.31L6.42-1.31Q7.36-2.06 7.31-3.61L7.31-3.61ZM15.89-3.19L15.89-8.58L17.06-8.58L17.06-3.05Q16.92 0.05 13.55 0.14L13.55 0.14Q10.41 0.05 10.27-2.86L10.27-2.86L10.27-8.58L11.44-8.58L11.44-3.19Q11.48-0.84 13.59-0.80L13.59-0.80Q15.89-0.84 15.89-3.19L15.89-3.19ZM24.52 0L23.67-2.48L20.20-2.48L19.31 0L18.14 0L21.38-8.58L22.69-8.58L25.78 0L24.52 0ZM21.94-7.31L20.58-3.52L23.25-3.52L21.98-7.31L21.94-7.31ZM28.22-8.58L32.53-1.64L32.53-8.58L33.66-8.58L33.66 0L32.34 0L27.98-6.94L27.94-6.94L27.94 0L26.81 0L26.81-8.58L28.22-8.58ZM41.86-3.61L39.23-3.61L39.23-4.59L42.98-4.59L42.98 0L42.23 0L41.95-1.08Q40.97 0.09 39.14 0.14L39.14 0.14Q37.41 0.14 36.47-0.75L36.47-0.75Q35.06-2.06 35.11-4.36L35.11-4.36Q35.44-8.63 39.19-8.81L39.19-8.81Q42.38-8.63 42.84-6L42.84-6L41.72-6Q41.25-7.78 39.14-7.83L39.14-7.83Q36.47-7.64 36.33-4.31L36.33-4.31Q36.33-0.75 39.19-0.75L39.19-0.75Q40.22-0.75 40.97-1.31L40.97-1.31Q41.91-2.06 41.86-3.61L41.86-3.61ZM45.61-1.03L50.91-1.03L50.91 0L44.16 0L44.16-0.94L49.41-7.59L44.53-7.59L44.53-8.58L50.91-8.58L50.91-7.59L45.61-1.03ZM53.20-5.06L57.70-5.06L57.70-8.58L58.88-8.58L58.88 0L57.70 0L57.70-3.98L53.20-3.98L53.20 0L52.03 0L52.03-8.58L53.20-8.58L53.20-5.06ZM67.45-4.27L67.45-4.27Q67.27-7.64 64.45-7.83L64.45-7.83Q61.59-7.69 61.45-4.27L61.45-4.27Q61.59-0.94 64.45-0.80L64.45-0.80Q67.27-0.98 67.45-4.27ZM68.63-4.27L68.63-4.27Q68.34 0 64.45 0.14L64.45 0.14Q60.52 0 60.23-4.27L60.23-4.27Q60.47-8.72 64.45-8.81L64.45-8.81Q68.34-8.67 68.63-4.27ZM75.66-3.19L75.66-8.58L76.83-8.58L76.83-3.05Q76.69 0.05 73.31 0.14L73.31 0.14Q70.17 0.05 70.03-2.86L70.03-2.86L70.03-8.58L71.20-8.58L71.20-3.19Q71.25-0.84 73.36-0.80L73.36-0.80Q75.66-0.84 75.66-3.19L75.66-3.19ZM85.45 0L81.98 0L81.98-8.58L85.50-8.58Q88.97-8.39 89.11-4.41L89.11-4.41Q88.92-0.09 85.45 0L85.45 0ZM85.31-7.64L83.16-7.64L83.16-0.98L85.41-0.98Q87.84-1.13 87.94-4.31L87.94-4.31Q87.89-7.55 85.31-7.64L85.31-7.64ZM91.88-1.03L97.03-1.03L97.03 0L90.70 0L90.70-8.58L96.94-8.58L96.94-7.59L91.88-7.59L91.88-4.92L96.56-4.92L96.56-3.89L91.88-3.89L91.88-1.03ZM101.77-7.64L99.70-7.64L99.70-4.97L101.77-4.97Q103.59-4.92 103.55-6.38L103.55-6.38Q103.55-7.64 101.77-7.64L101.77-7.64ZM102.23 0L98.53 0L98.53-8.58L102.33-8.58Q104.63-8.48 104.72-6.42L104.72-6.42Q104.72-5.16 103.59-4.64L103.59-4.64Q105.19-4.08 105.19-2.53L105.19-2.53Q105.05-0.09 102.23 0L102.23 0ZM101.95-3.98L99.70-3.98L99.70-0.98L102.19-0.98Q103.97-1.03 104.02-2.53L104.02-2.53Q104.02-3.98 101.95-3.98L101.95-3.98ZM112.17 0L111.33-2.48L107.86-2.48L106.97 0L105.80 0L109.03-8.58L110.34-8.58L113.44 0L112.17 0ZM109.59-7.31L108.23-3.52L110.91-3.52L109.64-7.31L109.59-7.31ZM121.27-4.27L121.27-4.27Q121.08-7.64 118.27-7.83L118.27-7.83Q115.41-7.69 115.27-4.27L115.27-4.27Q115.41-0.94 118.27-0.80L118.27-0.80Q121.08-0.98 121.27-4.27ZM122.44-4.27L122.44-4.27Q122.16 0 118.27 0.14L118.27 0.14Q114.33 0 114.05-4.27L114.05-4.27Q114.28-8.72 118.27-8.81L118.27-8.81Q122.16-8.67 122.44-4.27ZM132.05-8.58L132.05 0L130.92 0L130.92-5.06Q130.92-5.77 130.92-7.22L130.92-7.22L128.48 0L127.31 0L124.92-7.22L124.88-7.22Q124.88-6.70 124.92-5.67L124.92-5.67Q124.92-5.16 124.92-5.06L124.92-5.06L124.92 0L123.75 0L123.75-8.58L125.44-8.58L127.92-1.31L130.36-8.58L132.05-8.58ZM139.41 0L138.56-2.48L135.09-2.48L134.20 0L133.03 0L136.27-8.58L137.58-8.58L140.67 0L139.41 0ZM136.83-7.31L135.47-3.52L138.14-3.52L136.88-7.31L136.83-7.31ZM148.50-4.27L148.50-4.27Q148.31-7.64 145.50-7.83L145.50-7.83Q142.64-7.69 142.50-4.27L142.50-4.27Q142.64-0.94 145.50-0.80L145.50-0.80Q148.31-0.98 148.50-4.27ZM149.67-4.27L149.67-4.27Q149.39 0 145.50 0.14L145.50 0.14Q141.56 0 141.28-4.27L141.28-4.27Q141.52-8.72 145.50-8.81L145.50-8.81Q149.39-8.67 149.67-4.27Z" transform="translate(-0.5609879032258065, 8.8125)"></path></g></g></g></g></g><defs v-gra="od"></defs></svg>